<?xml version="1.0" encoding="UTF-8"?>
<svg width="18px" height="12px" viewBox="0 0 18 12" version="1.1" xmlns="http://www.w3.org/2000/svg" xmlns:xlink="http://www.w3.org/1999/xlink">
    <!-- Generator: Sketch 41.2 (35397) - http://www.bohemiancoding.com/sketch -->
    <title>Group 23</title>
    <desc>Created with Sketch.</desc>
    <defs></defs>
    <g id="Symbols" stroke="none" stroke-width="1" fill="none" fill-rule="evenodd">
        <g id="Input_Dropdown" transform="translate(-374.000000, -58.000000)" fill="#3B3F3B">
            <g id="Group-3-Copy-9" transform="translate(0.000000, -3.000000)">
                <g id="Group-23" transform="translate(374.000000, 61.000000)">
                    <path d="M14.0417675,5.46424216 C13.9712212,5.39369586 13.8901681,5.34191188 13.8031109,5.30663873 L4.97506752,-2.79117546 C4.69588431,-3.06960818 4.24258683,-3.06960818 3.96340362,-2.79117546 C3.6842204,-2.51199224 3.6842204,-2.05869477 3.96340362,-1.77951155 L12.4462205,6.0008443 L3.9649046,13.7789487 C3.68572139,14.0588824 3.68572139,14.5114294 3.9649046,14.7906126 C4.24408782,15.0697958 4.6966348,15.0697958 4.97581801,14.7906126 L13.8053624,6.69129741 C13.8909185,6.65602427 13.9712212,6.60499078 14.0402666,6.53519497 C14.1866126,6.38809844 14.2519054,6.19522186 14.245151,6.00309578 C14.2541569,5.80871822 14.1903651,5.61208918 14.0417675,5.46424216" id="Fill-1-Copy-5" transform="translate(9.000000, 6.000000) rotate(90.000000) translate(-9.000000, -6.000000) "></path>
                </g>
            </g>
        </g>
    </g>
</svg>